#!OML:ASF X:\für Bonn\!DataBase\2005_08_11_Bastian_Final\c3d\Bastian.ASF
:FULLY-SPECIFIED
:DEGREES
62
root -1.44198 17.711 -8.28144 169.448 -2.99056 -176.465
lowerback 13.6246 -2.85232 1.72322
upperback 2.62204 -3.80396 1.70181
thorax -4.84805 -2.04165 1.49457
lowerneck 3.71204 -2.88677 -8.33137
upperneck 0.266649 -4.10807 7.2628
head -0.219745 -2.1036 3.90082
rclavicle 2.77118e-014 -1.05356e-014
rhumerus 175.69 152.773 220.921
rradius 46.4129
rwrist -90.2942
rhand -64.419 -7.5589
rfingers 7.12502
rthumb -36.3478 -33.7892
lclavicle 2.77118e-014 -1.05356e-014
lhumerus -388.15 -54.518 338.991
lradius 36.1621
lwrist 65.8923
lhand -62.4951 41.7159
lfingers 7.12502
lthumb -34.5239 68.3818
rfemur 1.5985 8.52646 29.4815
rtibia 28.3349
rfoot -12.2252 -5.07909
rtoes 3.27608
lfemur 4.8733 2.42495 -15.5068
ltibia 24.8276
lfoot -13.0665 0.53712
ltoes -13.2447
63
root -1.4571 17.7043 -8.31208 169.444 -2.8599 -176.409
lowerback 13.5803 -2.84978 1.90721
upperback 2.66534 -3.78258 1.68229
thorax -4.79094 -2.03593 1.36308
lowerneck 3.70909 -2.89504 -8.23896
upperneck -0.105036 -4.10699 7.2907
head -0.340712 -2.1033 3.89781
rclavicle 4.98111e-014 -2.62396e-014
rhumerus 172.554 148.446 217.19
rradius 46.1752
rwrist -90.361
rhand -64.7524 -6.62041
rfingers 7.12502
rthumb -36.6634 -32.7712
lclavicle 4.98111e-014 -2.62396e-014
lhumerus -393.817 -54.1266 346.294
lradius 34.9219
lwrist 63.4349
lhand -62.0136 40.7545
lfingers 7.12502
lthumb -34.0667 67.5235
rfemur 1.70668 8.56802 29.5307
rtibia 28.3808
rfoot -12.3657 -5.02831
rtoes 3.2415
lfemur 4.97175 2.48327 -15.4904
ltibia 24.8066
lfoot -13.1446 0.679795
ltoes -13.3395
64
root -1.4729 17.698 -8.3402 169.43 -2.74331 -176.366
lowerback 13.5594 -2.84003 2.08007
upperback 2.72458 -3.75528 1.66811
thorax -4.72863 -2.02795 1.24327
lowerneck 3.5972 -2.91801 -8.20751
upperneck -0.435 -4.12083 7.34926
head -0.425558 -2.10904 3.91465
rclavicle -2.96562e-014 1.94809e-014
rhumerus 169.009 145.578 212.486
rradius 45.7607
rwrist -89.6131
rhand -65.0738 -5.97671
rfingers 7.12502
rthumb -36.9674 -32.0496
lclavicle -2.96562e-014 1.94809e-014
lhumerus -398.438 -52.4929 352.909
lradius 33.4327
lwrist 60.5475
lhand -61.5526 39.873
lfingers 7.12502
lthumb -33.6286 66.7385
rfemur 1.81663 8.60221 29.5508
rtibia 28.4251
rfoot -12.5014 -4.97851
rtoes 3.20016
lfemur 5.09105 2.47355 -15.5148
ltibia 24.7761
lfoot -13.2623 0.83734
ltoes -13.5741
65
root -1.48858 17.6914 -8.36427 169.442 -2.64452 -176.295
lowerback 13.5579 -2.83395 2.27902
upperback 2.74508 -3.7238 1.65119
thorax -4.71935 -2.01643 1.10807
lowerneck 3.57844 -2.94389 -8.12887
upperneck -0.839444 -4.13891 7.39795
head -0.551934 -2.11772 3.92251
rclavicle 8.07563e-016 9.14409e-015
rhumerus 165.263 144.237 207.025
rradius 45.0028
rwrist -87.8556
rhand -65.1956 -6.03197
rfingers 7.12502
rthumb -37.0826 -32.075
lclavicle 8.07563e-016 9.14409e-015
lhumerus -402.08 -50.3579 358.767
lradius 31.9296
lwrist 57.903
lhand -61.1378 39.1141
lfingers 7.12502
lthumb -33.2344 66.0646
rfemur 1.88638 8.65313 29.6058
rtibia 28.4622
rfoot -12.6274 -4.96074
rtoes 2.98672
lfemur 5.16757 2.55577 -15.4839
ltibia 24.7475
lfoot -13.3638 0.861276
ltoes -14.2406
66
root -1.50241 17.6868 -8.38478 169.432 -2.59486 -176.238
lowerback 13.5735 -2.83391 2.39517
upperback 2.80106 -3.71613 1.65745
thorax -4.6753 -2.0174 1.04723
lowerneck 3.47528 -2.97128 -8.03454
upperneck -1.23107 -4.15278 7.40522
head -0.660609 -2.12254 3.91064
rclavicle -4.06949e-014 1.5704e-014
rhumerus 161.58 144.202 201.283
rradius 44.0102
rwrist -85.4995
rhand -65.1558 -6.71026
rfingers 7.12502
rthumb -37.045 -32.7631
lclavicle -4.06949e-014 1.5704e-014
lhumerus -405.033 -47.7744 364.062
lradius 30.5662
lwrist 55.7122
lhand -60.7885 38.5518
lfingers 7.12502
lthumb -32.9022 65.5726
rfemur 1.97171 8.71781 29.6541
rtibia 28.4878
rfoot -12.7424 -4.98502
rtoes 3.07649
lfemur 5.24732 2.57051 -15.4727
ltibia 24.7198
lfoot -13.4301 0.861991
ltoes -14.5771
67
root -1.51604 17.681 -8.40196 169.401 -2.56784 -176.162
lowerback 13.6431 -2.82503 2.50142
upperback 2.8475 -3.69568 1.65361
thorax -4.67073 -2.01164 0.982761
lowerneck 3.37255 -3.02029 -7.78042
upperneck -1.62923 -4.18707 7.36032
head -0.773814 -2.13713 3.84958
rclavicle 3.21161e-014 5.76476e-015
rhumerus 158.075 145.148 195.485
rradius 42.8156
rwrist -82.7572
rhand -64.8771 -7.6023
rfingers 7.12502
rthumb -36.7814 -33.723
lclavicle 3.21161e-014 5.76476e-015
lhumerus -407.292 -44.9791 368.755
lradius 29.4097
lwrist 53.9614
lhand -60.3305 38.0722
lfingers 7.12502
lthumb -32.4664 65.1835
rfemur 2.06559 8.73307 29.7109
rtibia 28.5112
rfoot -12.8354 -5.01224
rtoes 3.1194
lfemur 5.33432 2.6603 -15.4205
ltibia 24.6921
lfoot -13.4389 0.794327
ltoes -15.4128
68
root -1.52744 17.6758 -8.41594 169.377 -2.62419 -176.061
lowerback 13.7109 -2.84103 2.5673
upperback 2.88733 -3.7126 1.68257
thorax -4.66765 -2.0239 0.981932
lowerneck 3.2458 -3.06592 -7.51977
upperneck -2.01579 -4.21589 7.27096
head -0.880377 -2.14825 3.77132
rclavicle -2.14253e-014 -1.17283e-014
rhumerus 154.916 146.473 189.915
rradius 41.5617
rwrist -80.2003
rhand -64.4241 -8.40035
rfingers 7.12502
rthumb -36.3526 -34.6295
lclavicle -2.14253e-014 -1.17283e-014
lhumerus -409.402 -42.295 373.373
lradius 28.5682
lwrist 52.9913
lhand -59.868 37.7008
lfingers 7.12502
lthumb -32.0262 64.9015
rfemur 2.14477 8.79036 29.8146
rtibia 28.528
rfoot -12.9117 -5.14247
rtoes 3.10989
lfemur 5.39656 2.66721 -15.3468
ltibia 24.6655
lfoot -13.3956 0.66162
ltoes -15.8304
69
root -1.53701 17.6689 -8.42844 169.334 -2.77953 -175.987
lowerback 13.7621 -2.87104 2.58363
upperback 2.9549 -3.75872 1.68851
thorax -4.62502 -2.05031 0.987728
lowerneck 3.0922 -3.11144 -7.20971
upperneck -2.44211 -4.23767 7.18311
head -0.996376 -2.15527 3.68466
rclavicle -6.22444e-015 6.55989e-015
rhumerus 151.915 147.62 184.431
rradius 40.3999
rwrist -78.2766
rhand -63.8879 -8.99345
rfingers 7.12502
rthumb -35.8448 -35.3479
lclavicle -6.22444e-015 6.55989e-015
lhumerus -411.097 -39.4773 377.646
lradius 27.9222
lwrist 52.2848
lhand -59.2039 37.1561
lfingers 7.12502
lthumb -31.3936 64.4818
rfemur 2.23986 8.77254 29.8801
rtibia 28.5396
rfoot -12.9897 -5.31297
rtoes 3.07145
lfemur 5.48956 2.67754 -15.291
ltibia 24.6507
lfoot -13.3794 0.44759
ltoes -16.3267
70
root -1.54398 17.6638 -8.43862 169.297 -3.00823 -175.886
lowerback 13.8124 -2.92649 2.58313
upperback 3.00952 -3.83903 1.72265
thorax -4.59272 -2.09328 1.03899
lowerneck 2.86243 -3.16475 -6.97925
upperneck -2.79639 -4.27043 7.1177
head -1.07258 -2.16635 3.61828
rclavicle -5.38769e-014 3.20043e-014
rhumerus 149.148 148.679 179.052
rradius 39.2605
rwrist -76.801
rhand -63.1907 -9.15039
rfingers 7.12502
rthumb -35.1838 -35.6633
lclavicle -5.38769e-014 3.20043e-014
lhumerus -412.636 -36.7662 381.943
lradius 27.3802
lwrist 51.9334
lhand -58.4409 36.5315
lfingers 7.12502
lthumb -30.6664 63.996
rfemur 2.32528 8.83263 30.0007
rtibia 28.5458
rfoot -13.0811 -5.59917
rtoes 3.09815
lfemur 5.55552 2.62748 -15.2106
ltibia 24.6386
lfoot -13.3582 0.227831
ltoes -16.898
71
root -1.55107 17.6577 -8.44463 169.224 -3.2677 -175.78
lowerback 13.9002 -2.97912 2.57946
upperback 3.08396 -3.91831 1.75449
thorax -4.55971 -2.13694 1.09107
lowerneck 2.59345 -3.23383 -6.65783
upperneck -3.1557 -4.32004 6.97468
head -1.14531 -2.18476 3.50699
rclavicle -2.29286e-014 -1.59028e-015
rhumerus 146.656 150.038 173.754
rradius 38.0147
rwrist -75.3797
rhand -62.3091 -8.9503
rfingers 7.12502
rthumb -34.3473 -35.6563
lclavicle -2.29286e-014 -1.59028e-015
lhumerus -413.567 -33.7278 385.784
lradius 26.6615
lwrist 51.1437
lhand -57.4007 35.487
lfingers 7.12502
lthumb -29.674 63.1328
rfemur 2.42895 8.77592 30.106
rtibia 28.5553
rfoot -13.1471 -5.84673
rtoes 3.04921
lfemur 5.63115 2.59922 -15.1078
ltibia 24.626
lfoot -13.3021 -0.0353891
ltoes -17.2217
72
root -1.55908 17.6525 -8.44714 169.157 -3.50044 -175.686
lowerback 13.9799 -3.02322 2.5694
upperback 3.15327 -3.98657 1.76997
thorax -4.52828 -2.17451 1.12737
lowerneck 2.31357 -3.29104 -6.34864
upperneck -3.49639 -4.3524 6.87265
head -1.21044 -2.1945 3.4121
rclavicle 7.04443e-015 -1.19271e-014
rhumerus 144.316 151.141 168.405
rradius 36.8202
rwrist -74.4549
rhand -61.4038 -8.53915
rfingers 7.12502
rthumb -33.4872 -35.4353
lclavicle 7.04443e-015 -1.19271e-014
lhumerus -413.827 -30.2608 388.997
lradius 25.6076
lwrist 49.6029
lhand -56.1201 33.9889
lfingers 7.12502
lthumb -28.451 61.8458
rfemur 2.51794 8.77879 30.1951
rtibia 28.5519
rfoot -13.2135 -6.06991
rtoes 3.2717
lfemur 5.67155 2.52698 -15.0466
ltibia 24.6255
lfoot -13.2665 -0.217811
ltoes -17.681
73
root -1.56642 17.6472 -8.44617 169.07 -3.78432 -175.571
lowerback 14.0788 -3.08169 2.56131
upperback 3.23432 -4.07528 1.80457
thorax -4.49348 -2.22341 1.18711
lowerneck 1.93956 -3.35073 -6.05079
upperneck -3.80126 -4.38553 6.75555
head -1.24728 -2.20253 3.31126
rclavicle 5.15163e-014 -1.45113e-014
rhumerus 141.95 151.636 162.851
rradius 35.8723
rwrist -74.4128
rhand -60.6866 -8.01925
rfingers 7.12502
rthumb -32.8053 -35.0603
lclavicle 5.15163e-014 -1.45113e-014
lhumerus -413.701 -26.6015 391.956
lradius 24.3239
lwrist 47.6686
lhand -54.7654 32.1319
lfingers 7.12502
lthumb -27.1558 60.1981
rfemur 2.62058 8.77296 30.3155
rtibia 28.5398
rfoot -13.2545 -6.3697
rtoes 3.34576
lfemur 5.69787 2.51478 -14.9388
ltibia 24.634
lfoot -13.2026 -0.476222
ltoes -18.0514
74
root -1.57268 17.6427 -8.44464 168.995 -4.11147 -175.473
lowerback 14.1318 -3.14955 2.53094
upperback 3.30823 -4.17906 1.82935
thorax -4.4404 -2.27848 1.24895
lowerneck 1.55669 -3.4148 -5.74521
upperneck -4.08181 -4.4263 6.61989
head -1.27485 -2.214 3.20239
rclavicle -1.26477e-014 -9.54166e-015
rhumerus 139.666 152.095 157.204
rradius 35.012
rwrist -74.5061
rhand -59.9744 -7.81227
rfingers 7.12502
rthumb -32.1275 -34.9926
lclavicle -1.26477e-014 -9.54166e-015
lhumerus -413.473 -23.2448 395.063
lradius 22.9744
lwrist 45.9373
lhand -53.4442 30.2962
lfingers 7.12502
lthumb -25.8912 58.5534
rfemur 2.69912 8.68242 30.3954
rtibia 28.5202
rfoot -13.3159 -6.61472
rtoes 3.26626
lfemur 5.70058 2.43869 -14.8623
ltibia 24.6442
lfoot -13.1549 -0.715782
ltoes -18.2766
75
root -1.57875 17.6381 -8.44017 168.87 -4.43693 -175.343
lowerback 14.186 -3.22186 2.55716
upperback 3.42697 -4.28843 1.86383
thorax -4.34341 -2.33976 1.2885
lowerneck 1.08286 -3.47331 -5.62886
upperneck -4.3169 -4.45796 6.60632
head -1.26637 -2.21799 3.16753
rclavicle 3.65515e-014 3.77691e-015
rhumerus 137.774 152.988 151.76
rradius 34.0415
rwrist -74.3074
rhand -59.2107 -7.94837
rfingers 7.12502
rthumb -31.4001 -35.2728
lclavicle 3.65515e-014 3.77691e-015
lhumerus -413.453 -20.6986 398.92
lradius 21.9154
lwrist 45.3789
lhand -52.4554 28.6913
lfingers 7.12502
lthumb -24.9439 57.0834
rfemur 2.82383 8.60971 30.52
rtibia 28.503
rfoot -13.3468 -6.89173
rtoes 3.27367
lfemur 5.74167 2.41237 -14.7311
ltibia 24.6502
lfoot -13.0877 -1.03523
ltoes -18.3228
76
root -1.58485 17.6338 -8.4312 168.764 -4.71603 -175.242
lowerback 14.2224 -3.27944 2.58451
upperback 3.54365 -4.37824 1.87659
thorax -4.24066 -2.39077 1.2999
lowerneck 0.610534 -3.53843 -5.49082
upperneck -4.54506 -4.49822 6.5759
head -1.25628 -2.22579 3.12283
rclavicle -3.56011e-014 2.68359e-014
rhumerus 136.302 154.398 146.552
rradius 32.9122
rwrist -73.6648
rhand -58.3148 -8.46255
rfingers 7.12502
rthumb -30.5461 -35.9495
lclavicle -3.56011e-014 2.68359e-014
lhumerus -413.747 -19.2436 403.773
lradius 21.3425
lwrist 46.3895
lhand -51.8566 27.5642
lfingers 7.12502
lthumb -24.37 56.0346
rfemur 2.92128 8.60056 30.6199
rtibia 28.4732
rfoot -13.3663 -7.17705
rtoes 3.35008
lfemur 5.74412 2.33722 -14.6515
ltibia 24.6709
lfoot -13.031 -1.25427
ltoes -18.2957
